<svg width="200" height="75" viewBox="0 0 200 75" fill="none" xmlns="http://www.w3.org/2000/svg">
<path d="M157.73 16.4885L167.27 18.3965V19.8425H169.472V16.5918L155.528 13.8031V19.8425H157.73V16.4885Z" fill="#202020"/>
<path d="M185.77 61.0117L182.269 35.3407L169.472 33.0138V29.5475C170.887 27.9576 171.704 25.9652 171.809 23.8323L174.168 21.4725V12.7975C174.168 9.60078 171.568 7 168.371 7H156.629C153.432 7 150.832 9.60078 150.832 12.7975V21.4735L153.215 23.8498C153.392 25.9754 154.238 27.9077 155.528 29.4194V33.0137L142.731 35.3406L139.23 61.0117H125V67.91H200V61.0117H185.77ZM147.309 61.0117H142.281L147.309 58.1385V61.0117ZM157.73 31.3173C159.051 32.1398 160.582 32.6316 162.214 32.6807C162.311 32.6836 162.407 32.6851 162.503 32.6851C164.208 32.6851 165.841 32.2299 167.27 31.3748V33.3093L162.5 36.1713L157.73 33.3093V31.3173H157.73ZM162.5 39.2896L164.702 42.225H160.298L162.5 39.2896ZM167.394 42.225L172.714 35.8411L176.417 36.5143L173.561 42.225H167.394ZM151.439 42.225L148.583 36.5142L152.286 35.8409L157.606 42.225H151.439ZM149.511 44.4266H175.489V61.0117H149.511V44.4266ZM177.691 58.1385L182.719 61.0117H177.691V58.1385ZM183.243 58.7757L177.691 55.6028V42.225H176.023L178.673 36.9244L180.304 37.221L183.243 58.7757ZM170.226 35.3886L166.068 40.3776L164.113 37.771L168.582 35.0896L170.226 35.3886ZM155.371 22.8903L153.033 20.5597V12.7975C153.033 10.8147 154.646 9.20157 156.629 9.20157H168.371C170.354 9.20157 171.967 10.8147 171.967 12.7975V20.5608L169.618 22.9091V23.365C169.618 25.3067 168.851 27.1211 167.457 28.4739C166.063 29.826 164.224 30.5375 162.28 30.4801C158.569 30.3687 155.541 27.2243 155.387 23.3218L155.371 22.8903ZM156.418 35.0896L160.887 37.771L158.932 40.3776L154.774 35.3886L156.418 35.0896ZM144.696 37.221L146.327 36.9244L148.977 42.225H147.309V55.6028L141.757 58.7755L144.696 37.221ZM197.798 65.7084H127.202V63.2133H138.93H147.309H148.41H176.59H177.691H186.07H197.798V65.7084Z" fill="#202020"/>
<path d="M167.197 51.6184H157.803V53.82H167.197V51.6184Z" fill="#202020"/>
<path d="M13.6934 23.4062H17.0859V41.5293C17.0859 43.9785 16.3477 45.8945 14.8711 47.2773C13.4062 48.6602 11.4492 49.3516 9 49.3516C6.45703 49.3516 4.47656 48.7012 3.05859 47.4004C1.64063 46.0996 0.931641 44.2773 0.931641 41.9336H4.30664C4.30664 43.3984 4.70508 44.541 5.50195 45.3613C6.31055 46.1816 7.47656 46.5918 9 46.5918C10.3945 46.5918 11.5195 46.1523 12.375 45.2734C13.2422 44.3945 13.6816 43.1641 13.6934 41.582V23.4062ZM21.4629 39.3145C21.4629 37.4512 21.8262 35.7754 22.5527 34.2871C23.291 32.7988 24.3105 31.6504 25.6113 30.8418C26.9238 30.0332 28.418 29.6289 30.0938 29.6289C32.6836 29.6289 34.7754 30.5254 36.3691 32.3184C37.9746 34.1113 38.7773 36.4961 38.7773 39.4727V39.7012C38.7773 41.5527 38.4199 43.2168 37.7051 44.6934C37.002 46.1582 35.9883 47.3008 34.6641 48.1211C33.3516 48.9414 31.8398 49.3516 30.1289 49.3516C27.5508 49.3516 25.459 48.4551 23.8535 46.6621C22.2598 44.8691 21.4629 42.4961 21.4629 39.543V39.3145ZM24.7324 39.7012C24.7324 41.8105 25.2188 43.5039 26.1914 44.7812C27.1758 46.0586 28.4883 46.6973 30.1289 46.6973C31.7812 46.6973 33.0938 46.0527 34.0664 44.7637C35.0391 43.4629 35.5254 41.6465 35.5254 39.3145C35.5254 37.2285 35.0273 35.541 34.0312 34.252C33.0469 32.9512 31.7344 32.3008 30.0938 32.3008C28.4883 32.3008 27.1934 32.9395 26.209 34.2168C25.2246 35.4941 24.7324 37.3223 24.7324 39.7012ZM58.957 39.7012C58.957 42.6074 58.2891 44.9453 56.9531 46.7148C55.6172 48.4727 53.8242 49.3516 51.5742 49.3516C49.1719 49.3516 47.3145 48.502 46.002 46.8027L45.8438 49H42.8555V22H46.1074V32.0723C47.4199 30.4434 49.2305 29.6289 51.5391 29.6289C53.8477 29.6289 55.6582 30.502 56.9707 32.248C58.2949 33.9941 58.957 36.3848 58.957 39.4199V39.7012ZM55.7051 39.332C55.7051 37.1172 55.2773 35.4062 54.4219 34.1992C53.5664 32.9922 52.3359 32.3887 50.7305 32.3887C48.5859 32.3887 47.0449 33.3848 46.1074 35.377V43.6035C47.1035 45.5957 48.6562 46.5918 50.7656 46.5918C52.3242 46.5918 53.5371 45.9883 54.4043 44.7812C55.2715 43.5742 55.7051 41.7578 55.7051 39.332ZM66.6035 49H63.3516V29.9805H66.6035V49ZM63.0879 24.9355C63.0879 24.4082 63.2461 23.9629 63.5625 23.5996C63.8906 23.2363 64.3711 23.0547 65.0039 23.0547C65.6367 23.0547 66.1172 23.2363 66.4453 23.5996C66.7734 23.9629 66.9375 24.4082 66.9375 24.9355C66.9375 25.4629 66.7734 25.9023 66.4453 26.2539C66.1172 26.6055 65.6367 26.7812 65.0039 26.7812C64.3711 26.7812 63.8906 26.6055 63.5625 26.2539C63.2461 25.9023 63.0879 25.4629 63.0879 24.9355ZM73.4238 49V32.4941H70.418V29.9805H73.4238V28.0293C73.4238 25.9902 73.9688 24.4141 75.0586 23.3008C76.1484 22.1875 77.6895 21.6309 79.6816 21.6309C80.4316 21.6309 81.1758 21.7305 81.9141 21.9297L81.7383 24.5664C81.1875 24.4609 80.6016 24.4082 79.9805 24.4082C78.9258 24.4082 78.1113 24.7188 77.5371 25.3398C76.9629 25.9492 76.6758 26.8281 76.6758 27.9766V29.9805H80.7363V32.4941H76.6758V49H73.4238ZM90.5625 44.2363L94.9922 29.9805H98.4727L90.8262 51.9355C89.6426 55.0996 87.7617 56.6816 85.1836 56.6816L84.5684 56.6289L83.3555 56.4004V53.7637L84.2344 53.834C85.3359 53.834 86.1914 53.6113 86.8008 53.166C87.4219 52.7207 87.9316 51.9062 88.3301 50.7227L89.0508 48.7891L82.2656 29.9805H85.8164L90.5625 44.2363Z" fill="#202020"/>
</svg>
