<svg width="25" height="20" viewBox="0 0 25 20" fill="none" xmlns="http://www.w3.org/2000/svg">
<path d="M24.999 2.3741C24.0253 2.78177 23.0273 3.04556 22.0535 3.16547C23.1733 2.51799 23.9036 1.58273 24.3174 0.383693C23.295 0.959233 22.1996 1.36691 21.0555 1.58273C20.0331 0.527578 18.7916 0 17.3067 0C15.8948 0 14.6777 0.503597 13.6796 1.48681C12.6816 2.47002 12.1704 3.66906 12.1704 5.05995C12.1704 5.44365 12.2191 5.82734 12.2921 6.21103C10.1986 6.11511 8.22686 5.58753 6.40116 4.65228C4.57545 3.71703 3.01751 2.47002 1.72735 0.935252C1.26484 1.72662 1.02141 2.56595 1.02141 3.47722C1.02141 4.34053 1.21615 5.15588 1.62998 5.8753C2.0438 6.6187 2.60369 7.21823 3.28528 7.67386C2.45763 7.64988 1.67866 7.43405 0.972723 7.02638V7.09832C0.972723 8.32134 1.36221 9.3765 2.14118 10.3118C2.92014 11.223 3.89385 11.8225 5.08665 12.0623C4.64848 12.1823 4.18597 12.2302 3.7478 12.2302C3.45568 12.2302 3.13923 12.2062 2.77409 12.1583C3.09054 13.1655 3.69911 14.0048 4.57545 14.6523C5.45179 15.2998 6.44984 15.6355 7.56961 15.6595C5.71956 17.0983 3.5774 17.8177 1.21615 17.8177C0.753638 17.8177 0.339812 17.7938 -0.0253296 17.7458C2.36026 19.2566 4.98928 20 7.83738 20C9.66308 20 11.3671 19.7122 12.9737 19.1607C14.5803 18.5851 15.9435 17.8417 17.0633 16.8825C18.183 15.9233 19.1811 14.8201 19.9844 13.5971C20.8121 12.3501 21.4206 11.0552 21.8101 9.71223C22.1996 8.3693 22.4187 7.0024 22.4187 5.65947C22.4187 5.3717 22.4187 5.15588 22.3943 5.01199C23.4411 4.26858 24.2931 3.40528 24.999 2.3741Z" fill="black"/>
</svg>
